<svg xmlns="http://www.w3.org/2000/svg" viewBox="0 0 200 260" fill="none">
  <rect x="12" y="8" width="176" height="244" rx="4" fill="#fafaf9" stroke="#e4e4e7" stroke-width="1"/>
  <rect x="24" y="28" width="100" height="8" rx="2" fill="#d4d4d8"/>
  <rect x="24" y="44" width="152" height="4" rx="1" fill="#e4e4e7"/>
  <rect x="24" y="54" width="140" height="4" rx="1" fill="#e4e4e7"/>
  <rect x="24" y="72" width="48" height="5" rx="1" fill="#f59e0b" opacity="0.35"/>
  <rect x="24" y="84" width="152" height="3" rx="1" fill="#d4d4d8"/>
  <rect x="24" y="92" width="148" height="3" rx="1" fill="#d4d4d8"/>
  <rect x="24" y="100" width="120" height="3" rx="1" fill="#d4d4d8"/>
  <rect x="24" y="116" width="56" height="5" rx="1" fill="#f59e0b" opacity="0.35"/>
  <rect x="24" y="128" width="152" height="3" rx="1" fill="#d4d4d8"/>
  <rect x="24" y="136" width="136" height="3" rx="1" fill="#d4d4d8"/>
  <rect x="24" y="152" width="40" height="5" rx="1" fill="#a1a1aa"/>
  <rect x="24" y="164" width="152" height="3" rx="1" fill="#d4d4d8"/>
  <rect x="24" y="172" width="100" height="3" rx="1" fill="#d4d4d8"/>
  <rect x="24" y="188" width="152" height="3" rx="1" fill="#e4e4e7"/>
  <rect x="24" y="196" width="130" height="3" rx="1" fill="#e4e4e7"/>
</svg>
